<?xml version="1.0" encoding="UTF-8" standalone="no"?>
<svg width="132px" height="33px" viewBox="0 0 132 33" version="1.1" xmlns="http://www.w3.org/2000/svg" xmlns:xlink="http://www.w3.org/1999/xlink">
    <defs></defs>
    <g id="Page-1" stroke="none" stroke-width="1" fill="none" fill-rule="evenodd">
        <g id="Artboard" transform="translate(-377.000000, -359.000000)" fill="#E40000">
            <g id="Group-2" transform="translate(377.500000, 359.000000)">
                <path d="M17.9,32 L26.2,9.7 L18.35,9.7 L13.5,23.55 L13.3,23.55 L8.45,9.7 L-0.05,9.7 L8.25,32 L17.9,32 Z M43.5,24.05 C42.75,25.8 41.35,26.55 39.15,26.55 C36.7,26.55 34.7,25.25 34.5,22.5 L50.15,22.5 L50.15,20.25 C50.15,14.2 46.2,9.1 38.75,9.1 C31.8,9.1 26.6,14.15 26.6,21.2 C26.6,28.3 31.7,32.6 38.85,32.6 C44.75,32.6 48.85,29.75 50,24.65 L43.5,24.05 Z M34.6,18.6 C34.9,16.5 36.05,14.9 38.65,14.9 C41.05,14.9 42.35,16.6 42.45,18.6 L34.6,18.6 Z M70.75,9.95 C70.2,9.5 69,9.1 67.65,9.1 C64.7,9.1 62.35,11.15 61.55,13.65 L61.55,9.7 L53.45,9.7 L53.45,32 L61.55,32 L61.55,21.8 C61.55,18.05 63.4,16.65 66.4,16.65 C67.95,16.65 69.15,16.95 70.25,17.6 L70.75,9.95 Z M71.65,24.75 C72.1,30.15 76.7,32.6 82.85,32.6 C89.2,32.6 93.2,29.9 93.2,25.2 C93.2,20.85 90.3,18.6 85.3,17.8 L80.95,17.05 C80.2,16.95 79.6,16.55 79.6,15.8 C79.6,14.8 80.5,14.2 82.05,14.2 C84.55,14.2 85.95,15.2 86.25,16.8 L92.9,16.6 C92.45,11.95 88.65,9.1 82.2,9.1 C75.95,9.1 72.1,12.25 72.1,16.65 C72.1,21.2 74.95,22.95 80.35,23.8 L83.65,24.3 C85.2,24.55 85.7,25.15 85.7,26 C85.7,26.9 84.75,27.55 82.95,27.55 C80.5,27.55 79,26.5 78.7,24.65 L71.65,24.75 Z M109.2,22.7 C109.2,25.6 107.35,27.3 105.05,27.3 C103.7,27.3 102.8,26.55 102.8,25.4 C102.8,23.95 103.95,23.35 105.9,22.95 L109.2,22.35 L109.2,22.7 Z M117.15,17.85 C117.15,11.65 112.8,9.1 106.9,9.1 C100.2,9.1 96.55,12.5 95.85,17.4 L103.35,17.9 C103.7,16.25 104.6,15.1 106.4,15.1 C108.35,15.1 109.2,16.2 109.2,18.05 L109.2,18.4 L102.95,19.45 C98.1,20.3 95,22.15 95,26.45 C95,30.25 97.85,32.5 102.2,32.5 C105.75,32.5 108.3,31.15 109.6,28.55 C110.35,31.1 112.5,32.5 115.25,32.5 C117.55,32.5 119.15,31.85 120.3,31.05 L120.3,26.75 C119.65,27 119.15,27.1 118.5,27.1 C117.65,27.1 117.15,26.6 117.15,25.45 L117.15,17.85 Z M122.65,0.5 L122.65,32 L130.75,32 L130.75,0.5 L122.65,0.5 Z" id="versal"></path>
            </g>
        </g>
    </g>
</svg>