<svg version="1.1"
   xmlns="http://www.w3.org/2000/svg" xmlns:xlink="http://www.w3.org/1999/xlink" xmlns:a="http://ns.adobe.com/AdobeSVGViewerExtensions/3.0/"
   x="0px" y="0px" width="135px" height="51.5px" viewBox="0 0 135 51.5" enable-background="new 0 0 135 51.5" xml:space="preserve"
  >
<defs>
</defs>
<g>
  <g>
    <path fill="#1A1A1A" d="M32.1,29.2c0.1,0.1,0.2,0.2,0.3,0.2c0.3,0.1,0.5-0.1,0.7-0.3c0.2-0.3,0.4-0.5,0.5-0.8
      c-0.1-0.2-0.3-0.4-0.5-0.3C32.8,28.5,31.8,28.5,32.1,29.2 M31.6,31.6c0.2-0.5,0.3-1.1,0.4-1.6l-0.5-0.5c-0.1,0-0.1,0.1-0.2,0.1
      C31,29.8,31,30.2,31,30.7c0,0.3-0.3,0.4-0.3,0.7C31,31.4,31.3,31.6,31.6,31.6 M61.1,26.7c-0.3,0.1-0.6,0.2-0.9,0.1
      c-0.1-0.2,0.1-0.3,0.2-0.5c0.2-0.2,0.5-0.5,0.8-0.3l0.1,0.2C61.3,26.4,61.2,26.5,61.1,26.7 M61.3,21.9c-0.1-0.1-0.3-0.1-0.4,0.1
      l-0.4,0.5c-0.1-0.1-0.1-0.3-0.1-0.4c0.2-0.4,0.4-0.8,0.5-1.2c0.1-0.1,0.2-0.1,0.3-0.1c0.4,0.3,0.5,0.8,0.9,1.1
      c0.3,0.4,0.5,1.1,0.2,1.6c-0.1,0-0.2,0.1-0.2,0C62.2,22.9,61.8,22.3,61.3,21.9 M74.4,25.9c0.3,0,0.5,0.1,0.7,0.3
      c0.1,0.2,0.2,0.4,0.1,0.5c-0.2,0.1-0.4,0-0.6,0c-0.2-0.1-0.2-0.4-0.3-0.6C74.3,26.1,74.3,26,74.4,25.9 M74,22.6
      c-0.5,0.3-0.6,0.8-0.7,1.2c0,0.1-0.1,0-0.2,0.1c-0.2-0.2,0-0.5,0-0.8c0.2-0.8,1.2-1.3,1.6-2c0.5,0,0.5,0.5,0.8,0.8
      c0.1,0.2,0.4,0.5,0.1,0.7c-0.2,0-0.3-0.1-0.4-0.2c-0.1-0.1-0.1-0.2-0.2-0.2C74.5,22,74.3,22.4,74,22.6 M81.7,25.2l-1.1,1.5
      L80.5,27c-0.2,0.3-0.1,0.8-0.1,1.1c-0.3-0.1-0.3-0.5-0.4-0.7c-0.2-1,0.8-1.6,1.1-2.4c-0.2-0.1-0.4-0.2-0.7-0.3
      c-0.5,0.7-0.9,1.4-1.3,2.1c0,0.2,0,0.5,0,0.7c-2.5,3.9-6.9,6.4-11.8,6.4c-4.7,0-8.9-2.3-11.4-5.8c0.2-0.3,0.4-0.6,0.3-1.1
      c0-0.6-0.5-0.9-0.7-1.4c-0.1-0.3-0.2-0.5-0.3-0.8c-0.3-0.1-0.7-0.2-0.9,0c0.3,0.7,0.8,1.4,1.2,2.2c0.1,0.6-0.3,1.1-0.7,1.6
      c-0.1,0.1-0.1,0-0.2-0.1c0.1-0.4,0.3-0.9,0.3-1.4c-0.4-0.8-1-1.6-1.4-2.4c0-0.1,0.1-0.3,0.2-0.4c0.4-0.2,1-0.1,1.3-0.5
      c0.4-0.7,0.7-1.4,0.8-2.2c0,0,0.1-0.1,0.2-0.1c0.1,0,0.1,0.1,0.1,0.2c0.2,0.9-0.1,1.7-0.5,2.4c-0.1,0.1,0,0.2,0.1,0.2
      c0.3,0.1,0.6,0,0.9-0.1c0.6-0.4,1.3-0.2,2-0.5c0,0.1,0.1,0.1,0.1,0.2c-0.3,0.3-0.5,0.8-0.5,1.2c-0.4,0.4-0.9,0.8-0.9,1.3
      c0.1,0.2,0.3,0,0.5,0c0.1,0,0.2,0.1,0.1,0.2c-0.1,0.3-0.4,0.5-0.4,0.8c0.1,0.4,0,0.9,0.5,1c1.1,0.2,1.9-0.7,3-0.6
      c0.9,0.2,1.6-0.2,2.2-0.8c0.2-0.1,0.3,0,0.4,0.1c0.6,0.6,1.3,1,2.1,1.2c0.3,0,0.6,0.1,0.8,0c0.1-0.1,0-0.2,0-0.2
      c-0.6-0.2-1.2-0.6-1.6-1.1c-0.3-0.7-0.6-1.4-1.1-2c0,0,0-0.1,0-0.2c0.6,0.1,1.1,0.7,1.3,1.2c0.5,0.7,1.2,1.3,2.1,1.2
      c0.1,0,0.3,0,0.2-0.2c-1.4-0.4-1.6-1.9-2.7-2.7c-0.5-1.3-1-2.6-1.2-4c0-1.3-0.8-2.3-1.6-3.3c-1.3-1.9-3.2-3-4.9-4.4l-0.5-0.3
      c-0.2-0.1-0.5-0.2-0.7-0.3c2-3.1,5.1-5.4,8.7-6.2v4.7c-0.2-0.1-0.4-0.1-0.5-0.1c-1.7,0-3.1,1.5-3.1,2.6c0,0.7,0.6,1.1,1.3,1.1
      c0.8,0,1.8-0.4,2.5-1.2c0.6-0.6,0.8-1.2,0.8-2.3l0-5c0.7-0.1,1.5-0.2,2.3-0.2c2,0,3.9,0.4,5.6,1.2l0,1.9c-0.2-0.1-0.4-0.1-0.5-0.1
      c-1.7,0-3.1,1.5-3.1,2.6c0,0.7,0.6,1.1,1.3,1.1c0.8,0,1.8-0.4,2.5-1.2c0.6-0.6,0.8-1.2,0.8-2.3V7.2c2.3,1.2,4.3,3.1,5.6,5.4
      c-1.8,1.4-3.8,2.5-5.5,4.1c-1.1,1.1-1.8,2.4-2.1,3.8c-0.9,2.5-1.1,5.4-3.7,6.9c0,0.1,0,0.1,0.1,0.2c0.6,0.1,1.2,0,1.6-0.5
      c0.4-0.6,0.9-1.2,1.4-1.7h0.1c0.2,0,0,0.2,0.1,0.3c-0.8,0.7-0.8,1.9-1.8,2.4c-0.1,0.1-0.4,0.3-0.2,0.4c1.1,0.1,2-0.7,2.8-1.5
      l0.2,0c0.5,0.3,0.8,0.9,1.4,0.8c1.2-0.3,2,0.4,3,0.7c0.3,0.1,0.5-0.1,0.7-0.3c0.4-0.3,0.2-0.8,0.2-1.2l0.1-0.1
      c0.2,0,0.4,0.2,0.6-0.1c0.1-0.5-0.4-0.9-0.6-1.4c-0.1-0.9-1.1-1.4-1.3-2.3c0,0,0.1-0.1,0.1-0.1c0.4,0.2,0.7,0.6,1.2,0.9
      c0.6,0.3,1.4,0.3,2.1,0.3c0.1,0,0.1-0.1,0.1-0.2c-0.4-0.9-0.7-1.8-0.6-2.8c0.1-0.3-0.1-0.8,0.3-0.9c0.1,0,0.1,0.1,0.2,0.2
      c0,0.9,0.1,1.9,0.5,2.7c0.2,0.6,0.8,0.9,1.3,1.2C81.7,24.7,81.8,25,81.7,25.2 M80.5,15.8c-0.7,0.5-1.3,1.2-1.6,1.9h-0.1
      c-0.1-1.1,0.8-2.1,1.8-2.8c0.2,0,0.3,0,0.4,0.2C81.1,15.4,80.7,15.6,80.5,15.8 M73,6c-1.7-0.7-3.6-1.1-5.6-1.1
      c-0.8,0-1.5,0.1-2.3,0.2l0-0.8L73,2.7L73,6z M55.3,16c0.3,0.2,0.4,0.5,0.5,0.8c0.1,0.5,0.2,1.1,0.1,1.7l-0.1,0.1
      c-0.1-0.1-0.1-0.3-0.1-0.4c-0.1-0.6-0.4-1.2-0.8-1.8c0-0.1,0-0.2,0.1-0.3C55.1,16,55.2,16,55.3,16 M102.7,12.8
      c0-0.1,0-0.2-0.1-0.2c-0.2,0.3-0.5,0.4-0.8,0.5c-1.1,0.1-2.1,0.4-2.9,1.3c-0.3,0.3-0.3,1-0.1,1.3c0.7,1.3,2.2,2.1,2.6,3.5
      c0.2,0.6-0.1,1.2-0.5,1.6c-0.7,0.4-1.7,0.4-2.5,0c-1.7-0.9-3.1-2.4-5-2.8c-1.1-0.1-2-0.7-2.9-1.4c-0.7-0.5-1.6-0.6-2.4-0.9
      c-0.8-0.8-1.6-1.3-2.6-1.6c-0.5-0.2-1.2-0.2-1.6-0.6c-0.3-0.4-0.8-0.8-1.2-1.1C82,11.9,81,11.6,80.3,12c-0.1,0-0.1,0.1-0.2,0.1
      c-1.5-2.5-3.6-4.5-6.2-5.7V0l-9.8,2v3.2c-4,0.9-7.4,3.4-9.5,6.8c-0.5,0-1,0.1-1.4,0.3c-1.1,1-2.6,1.4-3.9,1.9
      c-0.7,0.4-1.2,1.2-2,1.6c-1,0-1.9,0.2-2.7,0.9c-0.6,0.7-1.3,1.3-2.2,1.4c-1.5,0-2.8,0.7-3.9,1.8c-1.1,0.7-2.2,1.6-3.6,1.3
      c-0.5-0.1-1.1-0.6-1.2-1.2c-0.3-1.1,0.3-2,1.2-2.7c0.8-0.7,1.9-1.4,1.7-2.6c-0.2-1-1.3-1.2-2.2-1.4c-0.9,0-1.5-0.5-2.2-0.9
      C32.1,12.7,32,13,32,13.3c0.1,0.8,0.7,1.6,1.5,1.9c0.5,0.3,1.2-0.1,1.6,0.2c0.1,0.1,0.1,0.3,0.1,0.4c-0.9,0.9-2.3,1.9-2.6,3.2
      c-0.2,1.1,0.2,2.1,1,2.7c0.9,0.7,2.4,0.9,3.4,0.4c0.1,0,0.3,0,0.4,0.1l0.1,1.5c0.1,0.7,0.6,1.2,0.5,1.9c-0.3,0.4-0.8,0.6-1.2,0.8
      l-1.1,0.1c-0.3,0.2-0.4,0.6-0.5,0.9c0,0.8-0.9,1.2-1.5,1.6c-0.2,0.4-0.6,0.9-1.1,0.9c-0.4,0.4-0.4,1-0.5,1.5c0.5,0,1,0.2,1.5,0.1
      c0.6-0.1,0.7-0.8,1.1-1.3c0.4-0.4,1,0,1.5-0.1c0.6-0.3,1.2-0.7,1.7-1.2c1.1-0.6,2.4,0.3,3.5-0.3c0.5-0.6,1.3-0.5,1.6-1.2
      c0.2-0.5,0.6-1,0.7-1.6c-0.1-0.1-0.2-0.2-0.4-0.3c-0.1,0.2-0.3,0.5-0.4,0.7c-0.7,1.1-1.9,1.5-3.1,1.6c-1.6,0-3,0.3-4.1,1.6h-0.1
      c-0.1,0-0.1-0.1-0.1-0.1c0.5-1,1.5-1.7,2.6-1.8c1.7-0.2,3.5-0.2,4.4-1.8c0.6-0.9,0.4-2.1,0.7-3.1c0-0.1,0.1-0.2,0.2-0.2
      c0.1,0,0.2,0,0.2,0.1c-0.1,0.8-0.2,1.7,0.1,2.5c0.5,0.7,1.5,0.3,2.2,0.2c1.3-0.3,2.4,0.4,3.8,0.1c0.1-0.1,0.3-0.2,0.2-0.3
      c-0.1-0.3-0.2-0.5-0.2-0.9c0-0.1,0.1-0.2,0.2-0.2c0.2,0.1,0.2,0.4,0.2,0.5c0.5,1.5,2.8,1.4,2.9,3.2c-0.2,0.7-0.9,0.9-1.5,1
      c-1.1,0.2-1.3-1.1-1.9-1.6c-0.5-0.3-1.2-0.1-1.8,0c-0.1,0.1-0.2,0.2-0.2,0.3l0.6,1c0.2,0.5,0.9-0.1,1.1,0.4
      c0.2,0.5,0.8,1.2,1.4,1.2c1-0.2,1.9-0.6,2.8-1c0.3-0.5,1-0.1,1.5-0.4c0.1-0.1,0.2-0.2,0.3-0.3c2.7,3.6,7,5.9,11.8,5.9
      c5,0,9.4-2.5,12.1-6.2c0,0.1,0,0.2,0.1,0.2c0.1,0.6,0.7,0.2,1.1,0.4c0.5,0.7,1.3,0.7,2.1,1c0.5,0.2,1,0.5,1.6,0.4
      c0.5-0.2,0.9-0.7,0.9-1.3c0.2-0.3,0.6,0,0.8-0.3c0.2-0.4,0.6-0.7,0.7-1.1c-0.2-0.3-0.7-0.2-1.1-0.2c-0.1,0-0.2,0-0.3,0l0,0
      c-0.8,0-0.8,0.8-1.2,1.3c-0.1,0.2-0.4,0.2-0.6,0.2c-0.6-0.2-1.6-0.3-1.7-1.2c0.2-0.5,0.8-1,1.3-1.3c0.5-0.1,1-0.4,1.3-0.9
      c0.3-0.2,0.2-0.8,0.6-0.8c0.2,0.3,0,0.8-0.2,1.1c0.9,0.1,1.8,0,2.6-0.2c1.3-0.3,2.5,0.4,3.7-0.1c0.6-0.3,0.7-1,0.7-1.6l0,0l0,0
      c0-0.3-0.1-0.6-0.1-0.9c0-0.1-0.1-0.3,0-0.5c0.1-0.1,0.2,0,0.2,0c0.5,1.1,0.3,2.6,0.9,3.7c0.4,0.9,1.4,1.6,2.4,1.6
      c0,0,0.1-0.1,0.1,0c1.6-0.3,3,0.3,4,1.6v0.1c-0.1,0.1-0.1,0.1-0.2,0.1c-0.2-0.2-0.4-0.3-0.6-0.5c-0.9-0.9-2.2-0.9-3.4-0.8
      c-1.3,0-2.5-1-2.9-2.2c-0.1-0.1-0.1-0.4-0.3-0.3c-0.1,0-0.1,0.1-0.1,0.2c0.1,0.8,0.2,1.7,0.8,2.3c0.6,0.3,1,0.8,1.6,0.9
      c0.9-0.2,1.9-0.1,2.7,0.2c0.6,0.2,1.1,0.8,1.7,1.2c0.3,0.2,0.7,0.1,1-0.1c0.7-0.2,0.8,0.7,1.3,1c0.4,0.3,1,0.2,1.5,0.2l0.1,0
      c-0.1-0.5-0.2-1-0.4-1.4c-0.6,0-1-0.7-1.3-1.2c-0.3-0.3-0.7-0.5-0.8-0.9c-0.2-0.6-0.1-1.3-0.7-1.7c-0.5-0.1-1.1,0-1.5-0.4
      c-0.2-0.2-0.3-0.5-0.2-0.8c0.3-0.7,0.5-1.5,0.3-2.3c0-0.3-0.3-0.6,0-0.8c1,0.3,2.2,0.4,3.1-0.2c0.8-0.5,1.3-1.3,1.3-2.3
      c-0.2-1.4-1.1-2.4-2.2-3.4c-0.1-0.1-0.3-0.2-0.2-0.4c0-0.1,0-0.2,0.2-0.3c0.6,0,1.1-0.1,1.6-0.3C102.6,14.7,102.8,13.7,102.7,12.8
       M50.5,27.1c-0.1,0-0.1,0.1-0.1,0.2c0.5,0.3,0.6,0.8,0.8,1.2c0.4,0.2,0.8-0.1,1.1-0.3c0-0.1-0.1-0.2-0.1-0.3
      c-0.1-0.3-0.2-0.6-0.4-0.8c-0.3,0-0.7,0-1.1,0.1l0,0C50.7,27.1,50.6,27,50.5,27.1 M83.8,28.3c0.1-0.3,0.3-0.7,0.3-1.1
      c0-0.1-0.1-0.1-0.2-0.1c-0.2,0-0.3,0-0.4,0l0,0c-0.2-0.1-0.4,0-0.6,0c-0.2,0.3-0.3,0.6-0.3,0.9c0.1,0.2,0.4,0.2,0.6,0.3
      C83.3,28.4,83.6,28.5,83.8,28.3 M102.8,29.2c0-0.1,0.1-0.3,0-0.4l-0.9-0.8l-0.2,0c-0.1,0.1-0.4,0.2-0.4,0.4c0.3,0.4,0.5,1,1,1
      C102.5,29.4,102.7,29.4,102.8,29.2 M104.1,31.4l0-0.2c-0.3-0.3-0.1-0.8-0.3-1.2c-0.1-0.2-0.2-0.3-0.4-0.4
      c-0.3-0.1-0.4,0.2-0.6,0.3c0,0.4,0.2,0.8,0.2,1.2c0.1,0.2,0,0.5,0.2,0.6L104.1,31.4z"/>
  </g>
</g>
<g>
  <path fill="#1A1A1A" d="M73.3,40.5c-1,0-1,0.4-1,0.6c0,0.3,0,0.6,1,0.6c1,0,1-0.4,1-0.6C74.3,40.9,74.3,40.5,73.3,40.5z"/>
  <path fill="#1A1A1A" d="M75.8,46.2c0,2.2,1,3.4,3,3.4c0.5,0,1-0.1,1.3-0.2L80,48.2c-0.2,0-0.4,0.1-0.6,0.1c-1,0-1.6-0.7-1.6-2
    c0-1.3,0.3-2,1.7-2c0.2,0,0.3,0,0.5,0l0.1-1.4c-0.3-0.1-0.8-0.1-1.2-0.1C76.8,42.7,75.8,43.9,75.8,46.2z"/>
  <path fill="#1A1A1A" d="M70.9,47.4c0-1.3-0.9-1.6-1.7-1.9c-0.5-0.2-1-0.3-1-0.9c0-0.1,0.1-0.6,0.8-0.6c0.4,0,1,0.1,1.5,0.2l0.1-1.3
    c-0.5-0.2-1.1-0.3-1.6-0.3c-1.6,0-2.5,0.8-2.5,2.1c0,1.4,0.9,1.7,1.8,2c0.5,0.2,1,0.3,1,0.8c0,0.1,0,0.7-0.9,0.7
    c-0.4,0-1-0.1-1.6-0.2l-0.1,1.3c0.5,0.2,1.1,0.3,1.8,0.3C70.1,49.6,70.9,48.9,70.9,47.4z"/>
  <polygon fill="#1A1A1A" points="74.3,49.5 74.3,42.8 72.4,42.9 72.4,49.5   "/>
  <path fill="#1A1A1A" d="M99.2,49.6c0.6,0,1.1-0.2,1.4-0.5l0.4-0.4l0.3,0.8h1.3v-4c0-2-0.7-2.7-2.7-2.7c-0.8,0-1.5,0.1-2.1,0.3
    l0.1,1.2c0.5-0.1,0.9-0.2,1.5-0.2c1.2,0,1.4,0.6,1.4,1v0.6l-0.5-0.1c-0.3-0.1-0.5-0.1-0.9-0.1c-1.3,0-2.1,0.8-2.1,2
    C97.3,48.4,97.6,49.6,99.2,49.6z M99.9,46.4c0.3,0,0.4,0,0.6,0.1l0.3,0.1v0.9c0,0.5-0.4,0.9-0.9,0.9c-0.5,0-0.8-0.4-0.8-0.9
    C99,46.5,99.7,46.4,99.9,46.4z"/>
  <path fill="#1A1A1A" d="M132.9,49.4l2-6.6H133l-0.7,4.2h-0.6l-0.1-0.3l-1-4h-2.1l2.7,6.7l0,0.1c-0.3,0.8-1,0.8-1.3,0.8
    c-0.1,0-0.2,0-0.3,0l-0.1,1c0.3,0.1,0.6,0.1,0.9,0.1C131.7,51.5,132.5,50.9,132.9,49.4z"/>
  <path fill="#1A1A1A" d="M116.8,45.8c0-2.1-0.8-3-2.7-3c-2,0-2.9,1.1-2.9,3.4c0,2.3,1.1,3.5,3.4,3.5c0.8,0,1.5-0.1,2-0.3l-0.2-1.3
    c-0.5,0.1-1,0.2-1.5,0.2c-0.7,0-1.6-0.1-1.8-1.2l-0.1-0.4h3.7C116.8,46.3,116.8,46,116.8,45.8z M113.1,45.7l0-0.4
    c0.1-0.7,0.2-1.2,1-1.2c0.9,0,1,0.9,1,1.3l0,0.4H113.1z"/>
  <path fill="#1A1A1A" d="M65.1,42.8h-1.8v4.3c0,0.7-0.3,1-1,1c-0.4,0-1-0.2-1-1v-4.3h-1.9v4.3c0,1.7,0.9,2.5,2.8,2.5
    c1.9,0,2.8-0.8,2.8-2.5V42.8z"/>
  <path fill="#1A1A1A" d="M107.4,43.1c-0.3-0.3-0.7-0.4-1.1-0.4c-1.9,0-2.2,2.1-2.2,3.4c0,3.5,1.7,3.5,2.3,3.5c0.6,0,1-0.2,1.4-0.5
    l0.4-0.4l0.3,0.8h1.4v-8.6L108,41l0,2l-0.3,0.3L107.4,43.1z M108,44.7l0,3.1c-0.2,0.3-0.5,0.6-0.9,0.6c-1,0-1-0.9-1-2.1
    c0-1.2,0.1-2,1-2C107.4,44.2,107.7,44.3,108,44.7L108,44.7z"/>
  <path fill="#1A1A1A" d="M125.7,45.2v4.3h1.9v-4.3c0-1.6-0.7-2.5-2-2.5c-0.7,0-1.2,0.2-1.6,0.7l-0.3,0.4l-0.3-0.4
    c-0.3-0.5-0.8-0.7-1.5-0.7c-0.5,0-1,0.2-1.5,0.6l-0.3,0.3l-0.5-0.8l-1.3,0.1v6.6h1.9v-4.8l0.1-0.1c0.2-0.3,0.5-0.4,0.8-0.4
    c0.4,0,0.9,0.2,0.9,1.1v4.3h1.9v-4.3c0-0.9,0.6-1.1,0.9-1.1C125.3,44.1,125.7,44.5,125.7,45.2z"/>
  <path fill="#1A1A1A" d="M91.8,46.2c0,2.2,1,3.4,3,3.4c0.5,0,1-0.1,1.3-0.2L96,48.2c-0.2,0-0.4,0.1-0.6,0.1c-1,0-1.6-0.7-1.6-2
    c0-1.3,0.3-2,1.7-2c0.2,0,0.3,0,0.5,0l0.1-1.4c-0.3-0.1-0.8-0.1-1.2-0.1C92.8,42.7,91.8,43.9,91.8,46.2z"/>
  <path fill="#1A1A1A" d="M85.7,41.2l-2.3,8.3h2.2l0.3-1.4h2.6l0.3,1.4H91l-2.4-8.3H85.7z M86,46.6l0.7-3.6h0.6l0.1,0.3l0.2,1
    l0.5,2.3H86z"/>
  <path fill="#1A1A1A" d="M34.9,49.6c1.9,0,2.8-0.8,2.8-2.5v-4.3h-1.8v4.3c0,0.7-0.3,1-1,1c-0.4,0-1-0.2-1-1v-4.3h-1.9v4.3
    C32.1,48.8,33,49.6,34.9,49.6z"/>
  <path fill="#1A1A1A" d="M16.5,49.6c0.6,0,1-0.2,1.4-0.5l0.4-0.4l0.3,0.8H20v-8.6L18.1,41l0,2l-0.3,0.4l-0.3-0.2
    c-0.3-0.3-0.7-0.4-1.1-0.4c-1.9,0-2.2,2.1-2.2,3.4C14.2,49.6,15.9,49.6,16.5,49.6z M17.2,44.2c0.3,0,0.7,0.2,0.9,0.4l0.1,0.1l0,3.1
    c-0.2,0.3-0.5,0.6-0.9,0.6c-1,0-1-0.9-1-2.1C16.2,45,16.2,44.2,17.2,44.2z"/>
  <path fill="#1A1A1A" d="M30.7,47.2c0-0.9-0.4-1.5-1.1-1.7l-0.2-0.1v-0.5l0.2-0.1c0.6-0.3,0.9-0.8,0.9-1.5c0-1.3-1-2-2.7-2h-3.4v8.3
    h3.3C29.1,49.5,30.7,49.1,30.7,47.2z M26.3,42.8h1.3c0.8,0,0.9,0.5,0.9,0.9c0,0.5-0.1,1-0.9,1h-1.3V42.8z M26.3,46h1.3
    c0.8,0,1,0.5,1,1c0,0.6-0.2,1-0.9,1h-1.4V46z"/>
  <polygon fill="#1A1A1A" points="55.9,45.6 56,45.9 56,46.9 56,49.5 57.8,49.5 57.8,41.2 55.3,41.2 53.7,46 53.1,46 53,45.8 
    52.7,44.8 51.5,41.2 49.1,41.2 49.1,49.5 50.8,49.5 50.8,45.7 51.4,45.4 51.5,45.8 51.8,46.7 52.7,49.5 54,49.5 55.3,45.4   "/>
  <path fill="#1A1A1A" d="M12.8,49.3L12.6,48c-0.5,0.1-1,0.2-1.5,0.2c-0.7,0-1.6-0.1-1.8-1.2l-0.1-0.4h3.7c0-0.3,0-0.6,0-0.8
    c0-2.1-0.8-3-2.7-3c-2,0-2.9,1.1-2.9,3.4c0,2.3,1.1,3.5,3.4,3.5C11.6,49.6,12.3,49.5,12.8,49.3z M9.3,45.3c0.1-0.7,0.2-1.2,1-1.2
    c0.9,0,1,0.9,1,1.3l0,0.4H9.3L9.3,45.3z"/>
  <polygon fill="#1A1A1A" points="42.8,41 42.8,49.5 44.7,49.5 44.7,40.9   "/>
  <path fill="#1A1A1A" d="M5.3,46c0.6-0.3,0.9-1.1,0.9-2.1c0-1.8-1-2.6-3.3-2.6H0v8.3h2.1v-3h1.1l1,3h2.4L5,46.1L5.3,46z M3,45.2H2.1
    v-2.5H3C3.9,42.7,4,43.2,4,44C4,44.9,3.8,45.2,3,45.2z"/>
  <polygon fill="#1A1A1A" points="39.3,41 39.3,49.5 41.2,49.5 41.2,40.9   "/>
</g>
</svg>
